C:\GBW_MyPrograms\KinderuniversiteitApp\Resultaten\EllisTymenTest\Maan\Maan_v1.mot
version=1
nRows=18
nColumns=29
inDegrees=yes
endheader
                time	         pelvis_tilt	           pelvis_tx	           pelvis_ty	       hip_flexion_l	       hip_flexion_r	        knee_angle_l	        knee_angle_r	       ankle_angle_l	       ankle_angle_r	    lumbar_extension	hamstrings_r/activation	bifemsh_r/activation	glut_max_r/activation	iliopsoas_r/activation	rect_fem_r/activation	  vasti_r/activation	gastroc_r/activation	 soleus_r/activation	tib_ant_r/activation	hamstrings_l/activation	bifemsh_l/activation	glut_max_l/activation	iliopsoas_l/activation	rect_fem_l/activation	  vasti_l/activation	gastroc_l/activation	 soleus_l/activation	tib_ant_l/activation	
          0.00000000	         -8.76011943	          0.00000000	          0.94041334	         -4.64723104	         16.78179702	        -21.70534341	         -2.02652469	        -17.62219130	        -12.83454858	          2.02637307	          0.11145622	          0.07556778	          0.14756563	          0.05000087	          0.05000157	          0.05002766	          0.17180634	          0.05000481	          0.12445386	          0.05001188	          0.08708210	          0.05000126	          0.27005369	          0.14441310	          0.05000103	          0.05000514	          0.05000247	          0.09328654	
          0.01757779	         -8.85220435	          0.02602495	          0.93958063	         -3.70661493	         15.63785039	        -23.42516776	         -3.01534390	        -17.19811686	        -11.01296473	          2.47682909	          0.08620331	          0.16612981	          0.11941951	          0.05000076	          0.05000091	          0.05000111	          0.24363882	          0.05000225	          0.09625488	          0.06405263	          0.07577622	          0.05629471	          0.20886647	          0.11170043	          0.05000165	          0.05000628	          0.05000298	          0.09373529	
          0.03515558	         -8.94418804	          0.05170118	          0.93929475	         -2.68646718	         14.30128840	        -24.85956765	         -3.59315508	        -16.81401824	         -9.43454456	          2.88328497	          0.07367681	          0.21446919	          0.10711775	          0.05000064	          0.05000097	          0.05000204	          0.31488233	          0.05000164	          0.07444545	          0.07456730	          0.08971501	          0.05176392	          0.16154285	          0.13007317	          0.05000189	          0.05000604	          0.05000308	          0.09524272	
          0.05273337	         -9.03610269	          0.07683589	          0.93993362	         -1.61536501	         12.94170309	        -25.95452754	         -3.96563526	        -16.46306779	         -8.53518824	          3.22060590	          0.06998511	          0.27288848	          0.10053535	          0.05000072	          0.05000099	          0.05000147	          0.35833930	          0.07816283	          0.06078837	          0.06696753	          0.12395843	          0.05000717	          0.13125770	          0.14501935	          0.05000183	          0.05000769	          0.05000305	          0.09734901	
          0.07031116	         -9.12738782	          0.10134738	          0.94181307	         -0.51336154	         11.64568642	        -26.65973415	         -4.25245076	        -16.13612490	         -8.43917711	          3.47781913	          0.07121952	          0.32584688	          0.09853511	          0.05000080	          0.05000100	          0.05000123	          0.36759354	          0.10921451	          0.06061801	          0.05180737	          0.15659951	          0.05000291	          0.11773572	          0.15137659	          0.05000172	          0.05000710	          0.05000282	          0.09940729	
          0.08788895	         -9.21643706	          0.12525065	          0.94507119	          0.61172273	         10.45874678	        -26.97211658	         -4.55366528	        -15.82730670	         -9.02884940	          3.65537202	          0.07050591	          0.36840354	          0.09147097	          0.05000104	          0.05000109	          0.05000101	          0.34745018	          0.11744087	          0.05000261	          0.05000238	          0.16769565	          0.05000187	          0.11855335	          0.15170152	          0.05000224	          0.05000592	          0.05000284	          0.10048398	
          0.10546674	         -9.30070143	          0.14861006	          0.94963063	          1.76626669	          9.42279222	        -26.96028858	         -4.96731249	        -15.53998665	        -10.17436289	          3.75869542	          0.06932246	          0.39107679	          0.07969917	          0.05000156	          0.05000124	          0.05000092	          0.30778457	          0.11837970	          0.05000064	          0.05000134	          0.15834774	          0.05000123	          0.12196892	          0.14363843	          0.05000268	          0.05000501	          0.05000288	          0.10073906	
          0.12304453	         -9.37764426	          0.17151599	          0.95523242	          2.94876714	          8.58617820	        -26.69663743	         -5.61166098	        -15.28281347	        -11.71653558	          3.79624550	          0.06803772	          0.39220322	          0.06164437	          0.05000230	          0.05000134	          0.05000074	          0.25264084	          0.11669607	          0.05000035	          0.05000093	          0.14359442	          0.05000100	          0.12256933	          0.12882771	          0.05000235	          0.05000527	          0.05000312	          0.10035184	
          0.14062232	         -9.44539451	          0.19406486	          0.96153887	          4.14702436	          7.97837199	        -26.23504811	         -6.56082747	        -15.06092966	        -13.54976818	          3.77770408	          0.06851249	          0.36495465	          0.05413235	          0.07382306	          0.05000123	          0.05000056	          0.19539718	          0.11512169	          0.05000025	          0.05000093	          0.12698089	          0.05000111	          0.11431563	          0.10801792	          0.05000192	          0.05000611	          0.05000351	          0.09964608	
          0.15820011	         -9.50268917	          0.21634624	          0.96820527	          5.33671348	          7.60694705	        -25.60540497	         -7.84404879	        -14.87358844	        -15.60230791	          3.71229814	          0.06773661	          0.28736202	          0.05068837	          0.11520593	          0.05000097	          0.05000041	          0.15112369	          0.11471021	          0.05000022	          0.05000132	          0.11362561	          0.05000160	          0.09566811	          0.08355935	          0.05000163	          0.05000649	          0.05000387	          0.09896581	
          0.17577790	         -9.54891476	          0.23844222	          0.97492243	          6.48410252	          7.45306053	        -24.82052516	         -9.43816827	        -14.71523890	        -17.81215627	          3.60887733	          0.05467698	          0.22225205	          0.05000408	          0.14108674	          0.05000165	          0.05000037	          0.11688176	          0.09378409	          0.05000012	          0.05000104	          0.11394029	          0.05000161	          0.07399807	          0.06463237	          0.05000133	          0.05000709	          0.05000401	          0.09827493	
          0.19335569	         -9.58353707	          0.26044794	          0.98140196	          7.55956847	          7.44119212	        -23.90821263	        -11.24871910	        -14.58107818	        -19.80184435	          3.47824497	          0.05000145	          0.17189437	          0.05004238	          0.14502639	          0.11612521	          0.07115029	          0.09039846	          0.07253450	          0.07875314	          0.05101460	          0.12830065	          0.05000624	          0.05723282	          0.05000442	          0.05000112	          0.05000753	          0.05000443	          0.09741657	
          0.21093348	         -9.60710223	          0.28254078	          0.98740062	          8.53644245	          7.32326809	        -22.91781143	        -12.76702829	        -14.46746377	        -20.79305414	          3.34335384	          0.05000102	          0.13294773	          0.05000432	          0.17065855	          0.17314973	          0.06733162	          0.06991612	          0.05610333	          0.08053034	          0.08014341	          0.10131632	          0.05022342	          0.05000707	          0.05000482	          0.05000103	          0.05001066	          0.05000519	          0.09668011	
          0.22851127	         -9.62073481	          0.30476917	          0.99285485	          9.40301359	          7.01594459	        -21.92157873	        -13.65136017	        -14.36181225	        -20.90423432	          3.21120891	          0.05000153	          0.10283066	          0.05000412	          0.19337264	          0.19964613	          0.05207995	          0.05408324	          0.05525582	          0.07807014	          0.09801359	          0.07838608	          0.06063794	          0.05000692	          0.05000510	          0.05000114	          0.05000832	          0.05000507	          0.09656534	
          0.24608906	         -9.62526089	          0.32707825	          0.99777926	         10.14617015	          6.62600252	        -20.95099883	        -14.05598350	        -14.25982246	        -20.67366431	          3.07535465	          0.05000228	          0.08283439	          0.05000411	          0.21334561	          0.20850153	          0.05000418	          0.05032149	          0.05006924	          0.07648770	          0.10972713	          0.06066849	          0.06505219	          0.05000889	          0.05000586	          0.05000116	          0.05000894	          0.05000514	          0.09671833	
          0.26366685	         -9.62119906	          0.34943485	          1.00218630	         10.75265145	          6.23001939	        -20.01184181	        -14.11438700	        -14.15996925	        -20.33105316	          2.93216715	          0.05000351	          0.08054348	          0.05000541	          0.22542340	          0.20687772	          0.05000405	          0.05000569	          0.05000477	          0.07940875	          0.11436978	          0.05039674	          0.06800698	          0.05001087	          0.05000688	          0.05000121	          0.05000856	          0.05000501	          0.09719515	
          0.28124464	         -9.60885159	          0.37181444	          1.00608489	         11.21501164	          5.88588825	        -19.10097076	        -13.94904705	        -14.06111629	        -19.95764099	          2.77912986	          0.05000566	          0.06625750	          0.05000596	          0.22932994	          0.19747191	          0.05000335	          0.05000531	          0.05000486	          0.08193362	          0.11384954	          0.05002156	          0.06702316	          0.05001277	          0.05000881	          0.05000136	          0.05000722	          0.05000497	          0.09781543	
          0.29882243	         -9.58845079	          0.39420240	          1.00948124	         11.53707325	          5.62245025	        -18.22278929	        -13.63530681	        -13.96386971	        -19.57702901	          2.61497641	          0.05000813	          0.05416280	          0.05000748	          0.22623375	          0.18484259	          0.05000291	          0.05000485	          0.05000433	          0.08430560	          0.11046982	          0.05006691	          0.06263288	          0.05001755	          0.05001138	          0.05000146	          0.05000723	          0.05000498	          0.09859563	
